<?xml version="1.0" encoding="UTF-8" standalone="no"?>
<svg
   xmlns:dc="http://purl.org/dc/elements/1.1/"
   xmlns:cc="http://creativecommons.org/ns#"
   xmlns:rdf="http://www.w3.org/1999/02/22-rdf-syntax-ns#"
   xmlns:svg="http://www.w3.org/2000/svg"
   xmlns="http://www.w3.org/2000/svg"
   xmlns:sodipodi="http://sodipodi.sourceforge.net/DTD/sodipodi-0.dtd"
   xmlns:inkscape="http://www.inkscape.org/namespaces/inkscape"
   aria-hidden="true"
   focusable="false"
   data-prefix="fas"
   data-icon="pepper-hot"
   class="svg-inline--fa fa-pepper-hot fa-w-16"
   role="img"
   viewBox="0 0 512 512"
   version="1.1"
   id="svg5427"
   sodipodi:docname="pepper-hot-solid.svg"
   inkscape:version="0.92.5 (2060ec1f9f, 2020-04-08)">
  <metadata
     id="metadata5433">
    <rdf:RDF>
      <cc:Work
         rdf:about="">
        <dc:format>image/svg+xml</dc:format>
        <dc:type
           rdf:resource="http://purl.org/dc/dcmitype/StillImage" />
        <dc:title></dc:title>
      </cc:Work>
    </rdf:RDF>
  </metadata>
  <defs
     id="defs5431" />
  <sodipodi:namedview
     pagecolor="#ffffff"
     bordercolor="#666666"
     borderopacity="1"
     objecttolerance="10"
     gridtolerance="10"
     guidetolerance="10"
     inkscape:pageopacity="0"
     inkscape:pageshadow="2"
     inkscape:window-width="1680"
     inkscape:window-height="987"
     id="namedview5429"
     showgrid="false"
     inkscape:zoom="0.4609375"
     inkscape:cx="256"
     inkscape:cy="256"
     inkscape:window-x="-8"
     inkscape:window-y="-8"
     inkscape:window-maximized="1"
     inkscape:current-layer="svg5427" />
  <path
     fill="currentColor"
     d="M330.67 263.12V173.4l-52.75-24.22C219.44 218.76 197.58 400 56 400a56 56 0 0 0 0 112c212.64 0 370.65-122.87 419.18-210.34l-37.05-38.54zm131.09-128.37C493.92 74.91 477.18 26.48 458.62 3a8 8 0 0 0-11.93-.59l-22.9 23a8.06 8.06 0 0 0-.89 10.23c6.86 10.36 17.05 35.1-1.4 72.32A142.85 142.85 0 0 0 364.34 96c-28 0-54 8.54-76.34 22.59l74.67 34.29v78.24h89.09L506.44 288c3.26-12.62 5.56-25.63 5.56-39.31a154 154 0 0 0-50.24-113.94z"
     id="path5425"
     style="fill:#ffffff" />
</svg>
